<?xml version="1.0" encoding="UTF-8" standalone="no"?>
<!-- Created with Inkscape (http://www.inkscape.org/) -->

<svg
   width="1000"
   height="1000"
   viewBox="0 0 264.58333 264.58333"
   version="1.1"
   id="svg5"
   xml:space="preserve"
   sodipodi:docname="Logo_white.svg"
   inkscape:version="1.2 (dc2aedaf03, 2022-05-15)"
   xmlns:inkscape="http://www.inkscape.org/namespaces/inkscape"
   xmlns:sodipodi="http://sodipodi.sourceforge.net/DTD/sodipodi-0.dtd"
   xmlns="http://www.w3.org/2000/svg"
   xmlns:svg="http://www.w3.org/2000/svg"><sodipodi:namedview
     id="namedview7"
     pagecolor="#ffffff"
     bordercolor="#000000"
     borderopacity="0.25"
     inkscape:showpageshadow="2"
     inkscape:pageopacity="0.0"
     inkscape:pagecheckerboard="0"
     inkscape:deskcolor="#d1d1d1"
     inkscape:document-units="px"
     showgrid="false"
     inkscape:zoom="0.4204826"
     inkscape:cx="1055.9295"
     inkscape:cy="614.76979"
     inkscape:window-width="1388"
     inkscape:window-height="1000"
     inkscape:window-x="-7"
     inkscape:window-y="0"
     inkscape:window-maximized="0"
     inkscape:current-layer="layer1" /><defs
     id="defs2" /><g
     inkscape:label="Capa 1"
     inkscape:groupmode="layer"
     id="layer1"><g
       id="g2557"
       transform="matrix(1.970214,0,0,1.970214,-74.580805,-301.86639)"><rect
         style="fill:#edf0f3;fill-opacity:1;stroke:#11191f;stroke-width:2;stroke-linecap:round;stroke-dasharray:none;stroke-opacity:1"
         id="rect184-5"
         width="132.29167"
         height="132.29167"
         x="38.854164"
         y="154.21503"
         ry="18.877119" /><g
         aria-label="B"
         id="text398-5"
         style="font-weight:800;font-size:112.589px;font-family:Nunito;-inkscape-font-specification:'Nunito Ultra-Bold';text-align:center;text-anchor:middle;fill:#11191f;stroke-width:4.43262;stroke-linecap:round"><path
           d="m 81.581497,260.04849 q -4.390971,0 -6.75534,-2.36437 -2.364369,-2.36437 -2.364369,-6.75534 v -61.13582 q 0,-4.39097 2.364369,-6.75534 2.364369,-2.36437 6.75534,-2.36437 h 27.246533 q 8.44418,0 14.4114,2.47696 5.96721,2.47696 9.00712,7.0931 3.15249,4.61615 3.15249,11.03373 0,7.0931 -4.05321,12.04702 -4.0532,4.95391 -11.14631,6.64275 v -1.80142 q 8.219,1.46365 12.72256,6.53016 4.61615,4.95391 4.61615,12.94773 0,10.58337 -7.31829,16.55058 -7.31828,5.85463 -20.15343,5.85463 z m 7.543463,-12.94773 h 18.57718 q 6.75534,0 9.90784,-2.58955 3.15249,-2.70214 3.15249,-7.88123 0,-5.17909 -3.15249,-7.76864 -3.1525,-2.58955 -9.90784,-2.58955 H 89.12496 Z m 0,-33.7767 h 16.66317 q 6.53016,0 9.68265,-2.47696 3.1525,-2.47696 3.1525,-7.43087 0,-4.84133 -3.1525,-7.31829 -3.15249,-2.47696 -9.68265,-2.47696 H 89.12496 Z"
           id="path4828" /></g></g></g></svg>
