<?xml version="1.0" encoding="UTF-8" standalone="no"?>
<!-- Created with Inkscape (http://www.inkscape.org/) -->

<svg
   width="1000"
   height="1000"
   viewBox="0 0 264.58333 264.58333"
   version="1.1"
   id="svg5"
   xml:space="preserve"
   sodipodi:docname="Logo_black.svg"
   inkscape:version="1.2 (dc2aedaf03, 2022-05-15)"
   xmlns:inkscape="http://www.inkscape.org/namespaces/inkscape"
   xmlns:sodipodi="http://sodipodi.sourceforge.net/DTD/sodipodi-0.dtd"
   xmlns="http://www.w3.org/2000/svg"
   xmlns:svg="http://www.w3.org/2000/svg"><sodipodi:namedview
     id="namedview7"
     pagecolor="#ffffff"
     bordercolor="#000000"
     borderopacity="0.25"
     inkscape:showpageshadow="2"
     inkscape:pageopacity="0.0"
     inkscape:pagecheckerboard="0"
     inkscape:deskcolor="#d1d1d1"
     inkscape:document-units="px"
     showgrid="false"
     inkscape:zoom="0.4204826"
     inkscape:cx="1058.3078"
     inkscape:cy="614.76979"
     inkscape:window-width="1388"
     inkscape:window-height="1000"
     inkscape:window-x="0"
     inkscape:window-y="0"
     inkscape:window-maximized="0"
     inkscape:current-layer="layer1" /><defs
     id="defs2" /><g
     inkscape:label="Capa 1"
     inkscape:groupmode="layer"
     id="layer1"><g
       id="g2562"
       transform="matrix(1.970214,0,0,1.970214,-74.580805,-13.996725)"><rect
         style="fill:#11191f;fill-opacity:1;stroke:#edf0f3;stroke-width:2;stroke-linecap:round;stroke-dasharray:none;stroke-opacity:1"
         id="rect184"
         width="132.29167"
         height="132.29167"
         x="38.854164"
         y="8.1041641"
         ry="18.877119" /><g
         aria-label="B"
         id="text398"
         style="font-weight:800;font-size:112.589px;font-family:Nunito;-inkscape-font-specification:'Nunito Ultra-Bold';text-align:center;text-anchor:middle;fill:#edf0f3;stroke-width:4.43262;stroke-linecap:round"><path
           d="m 81.581489,113.93762 q -4.390971,0 -6.75534,-2.36437 -2.364369,-2.36437 -2.364369,-6.75534 V 43.682088 q 0,-4.390971 2.364369,-6.75534 2.364369,-2.364369 6.75534,-2.364369 h 27.246541 q 8.44417,0 14.41139,2.476958 5.96721,2.476958 9.00712,7.093107 3.15249,4.616149 3.15249,11.033722 0,7.093106 -4.0532,12.047022 -4.05321,4.953916 -11.14631,6.642751 v -1.801424 q 8.21899,1.463657 12.72255,6.530162 4.61615,4.953916 4.61615,12.947735 0,10.583368 -7.31828,16.550578 -7.31829,5.85463 -20.15343,5.85463 z m 7.543463,-12.94773 h 18.577188 q 6.75534,0 9.90783,-2.58955 3.15249,-2.702135 3.15249,-7.881229 0,-5.179094 -3.15249,-7.768641 -3.15249,-2.589547 -9.90783,-2.589547 H 89.124952 Z m 0,-33.776702 h 16.663168 q 6.53017,0 9.68266,-2.476958 3.15249,-2.476958 3.15249,-7.430873 0,-4.841327 -3.15249,-7.318285 -3.15249,-2.476958 -9.68266,-2.476958 H 89.124952 Z"
           id="path4766" /></g></g></g></svg>
